%TF.GenerationSoftware,KiCad,Pcbnew,(6.0.5-0)*%
%TF.CreationDate,2022-06-18T01:32:46+09:00*%
%TF.ProjectId,bg-key,62672d6b-6579-42e6-9b69-6361645f7063,rev?*%
%TF.SameCoordinates,Original*%
%TF.FileFunction,Legend,Bot*%
%TF.FilePolarity,Positive*%
%FSLAX46Y46*%
G04 Gerber Fmt 4.6, Leading zero omitted, Abs format (unit mm)*
G04 Created by KiCad (PCBNEW (6.0.5-0)) date 2022-06-18 01:32:46*
%MOMM*%
%LPD*%
G01*
G04 APERTURE LIST*
%ADD10C,0.150000*%
G04 APERTURE END LIST*
D10*
X136723047Y-122277190D02*
X136770666Y-122229571D01*
X136865904Y-122181952D01*
X136961142Y-122181952D01*
X137056380Y-122229571D01*
X137104000Y-122277190D01*
X137151619Y-122372428D01*
X137151619Y-122467666D01*
X137104000Y-122562904D01*
X137056380Y-122610523D01*
X136961142Y-122658142D01*
X136865904Y-122658142D01*
X136770666Y-122610523D01*
X136723047Y-122562904D01*
X136723047Y-122181952D02*
X136723047Y-122562904D01*
X136675428Y-122610523D01*
X136627809Y-122610523D01*
X136532571Y-122562904D01*
X136484952Y-122467666D01*
X136484952Y-122229571D01*
X136580190Y-122086714D01*
X136723047Y-121991476D01*
X136913523Y-121943857D01*
X137104000Y-121991476D01*
X137246857Y-122086714D01*
X137342095Y-122229571D01*
X137389714Y-122420047D01*
X137342095Y-122610523D01*
X137246857Y-122753380D01*
X137104000Y-122848619D01*
X136913523Y-122896238D01*
X136723047Y-122848619D01*
X136580190Y-122753380D01*
X136104000Y-122467666D02*
X135627809Y-122467666D01*
X136199238Y-122753380D02*
X135865904Y-121753380D01*
X135532571Y-122753380D01*
X135199238Y-122753380D02*
X135199238Y-121753380D01*
X135104000Y-122372428D02*
X134818285Y-122753380D01*
X134818285Y-122086714D02*
X135199238Y-122467666D01*
X134389714Y-122753380D02*
X134389714Y-121753380D01*
X134294476Y-122372428D02*
X134008761Y-122753380D01*
X134008761Y-122086714D02*
X134389714Y-122467666D01*
X133580190Y-122753380D02*
X133580190Y-122086714D01*
X133580190Y-121753380D02*
X133627809Y-121801000D01*
X133580190Y-121848619D01*
X133532571Y-121801000D01*
X133580190Y-121753380D01*
X133580190Y-121848619D01*
X132723047Y-122705761D02*
X132818285Y-122753380D01*
X133008761Y-122753380D01*
X133104000Y-122705761D01*
X133151619Y-122610523D01*
X133151619Y-122229571D01*
X133104000Y-122134333D01*
X133008761Y-122086714D01*
X132818285Y-122086714D01*
X132723047Y-122134333D01*
X132675428Y-122229571D01*
X132675428Y-122324809D01*
X133151619Y-122420047D01*
X132294476Y-122705761D02*
X132199238Y-122753380D01*
X132008761Y-122753380D01*
X131913523Y-122705761D01*
X131865904Y-122610523D01*
X131865904Y-122562904D01*
X131913523Y-122467666D01*
X132008761Y-122420047D01*
X132151619Y-122420047D01*
X132246857Y-122372428D01*
X132294476Y-122277190D01*
X132294476Y-122229571D01*
X132246857Y-122134333D01*
X132151619Y-122086714D01*
X132008761Y-122086714D01*
X131913523Y-122134333D01*
X131294476Y-122753380D02*
X131389714Y-122705761D01*
X131437333Y-122658142D01*
X131484952Y-122562904D01*
X131484952Y-122277190D01*
X131437333Y-122181952D01*
X131389714Y-122134333D01*
X131294476Y-122086714D01*
X131151619Y-122086714D01*
X131056380Y-122134333D01*
X131008761Y-122181952D01*
X130961142Y-122277190D01*
X130961142Y-122562904D01*
X131008761Y-122658142D01*
X131056380Y-122705761D01*
X131151619Y-122753380D01*
X131294476Y-122753380D01*
X130675428Y-122086714D02*
X130294476Y-122086714D01*
X130532571Y-122753380D02*
X130532571Y-121896238D01*
X130484952Y-121801000D01*
X130389714Y-121753380D01*
X130294476Y-121753380D01*
X130104000Y-122086714D02*
X129723047Y-122086714D01*
X129961142Y-121753380D02*
X129961142Y-122610523D01*
X129913523Y-122705761D01*
X129818285Y-122753380D01*
X129723047Y-122753380D01*
%TO.C,G\u002A\u002A\u002A*%
G36*
X139942175Y-120311149D02*
G01*
X139941576Y-120362363D01*
X139934116Y-120403177D01*
X139910422Y-120418357D01*
X139861090Y-120420596D01*
X139783658Y-120406129D01*
X139726836Y-120364094D01*
X139705676Y-120302053D01*
X139707873Y-120275781D01*
X139724242Y-120249544D01*
X139765966Y-120232307D01*
X139843919Y-120217413D01*
X139942175Y-120201701D01*
X139942175Y-120311149D01*
G37*
G36*
X133820849Y-120118478D02*
G01*
X133850048Y-120192106D01*
X133850883Y-120196701D01*
X133851300Y-120303280D01*
X133810282Y-120391034D01*
X133787074Y-120410175D01*
X133732020Y-120418337D01*
X133679680Y-120392216D01*
X133669456Y-120373588D01*
X133656405Y-120315454D01*
X133651300Y-120239324D01*
X133651301Y-120237599D01*
X133655192Y-120159744D01*
X133669523Y-120114924D01*
X133698600Y-120089497D01*
X133711489Y-120083509D01*
X133772079Y-120080529D01*
X133820849Y-120118478D01*
G37*
G36*
X141775110Y-119877813D02*
G01*
X141798928Y-119889771D01*
X141808657Y-119924759D01*
X141810518Y-119994898D01*
X141809624Y-120057758D01*
X141801691Y-120096672D01*
X141778661Y-120111064D01*
X141732473Y-120113147D01*
X141659541Y-120102391D01*
X141612479Y-120062912D01*
X141597669Y-119991000D01*
X141611818Y-119934958D01*
X141663591Y-119891687D01*
X141749838Y-119876648D01*
X141775110Y-119877813D01*
G37*
G36*
X139922217Y-119881127D02*
G01*
X139939519Y-119903698D01*
X139942175Y-119959423D01*
X139942069Y-119981407D01*
X139936290Y-120025295D01*
X139911430Y-120039944D01*
X139853488Y-120037713D01*
X139849138Y-120037346D01*
X139793022Y-120028369D01*
X139769541Y-120006483D01*
X139764801Y-119959423D01*
X139764809Y-119955942D01*
X139770225Y-119910601D01*
X139795153Y-119889753D01*
X139853488Y-119881133D01*
X139876267Y-119879350D01*
X139922217Y-119881127D01*
G37*
G36*
X126501131Y-120066073D02*
G01*
X126544313Y-120085731D01*
X126585359Y-120123977D01*
X126603628Y-120162136D01*
X126598748Y-120168697D01*
X126560677Y-120179734D01*
X126497203Y-120184097D01*
X126465409Y-120183090D01*
X126411920Y-120175234D01*
X126390779Y-120162136D01*
X126391028Y-120158582D01*
X126412756Y-120119513D01*
X126455028Y-120082376D01*
X126497203Y-120065847D01*
X126501131Y-120066073D01*
G37*
G36*
X127326462Y-119878014D02*
G01*
X127349345Y-119890574D01*
X127358659Y-119926413D01*
X127360425Y-119997530D01*
X127360425Y-120118411D01*
X127271918Y-120101807D01*
X127212103Y-120089400D01*
X127168481Y-120072072D01*
X127150859Y-120043743D01*
X127147576Y-119994334D01*
X127161584Y-119935716D01*
X127212905Y-119891707D01*
X127299745Y-119876648D01*
X127326462Y-119878014D01*
G37*
G36*
X137243228Y-119949809D02*
G01*
X137272789Y-119998303D01*
X137312227Y-120067642D01*
X137389840Y-120207747D01*
X137321272Y-120207747D01*
X137282584Y-120204976D01*
X137260351Y-120189078D01*
X137248046Y-120148715D01*
X137238750Y-120072550D01*
X137233230Y-120013943D01*
X137229275Y-119956572D01*
X137229705Y-119932445D01*
X137229788Y-119932387D01*
X137243228Y-119949809D01*
G37*
G36*
X135578835Y-119877813D02*
G01*
X135602652Y-119889771D01*
X135612381Y-119924759D01*
X135614242Y-119994898D01*
X135613349Y-120057758D01*
X135605416Y-120096672D01*
X135582385Y-120111064D01*
X135536198Y-120113147D01*
X135463265Y-120102391D01*
X135416203Y-120062912D01*
X135401393Y-119991000D01*
X135415543Y-119934958D01*
X135467316Y-119891687D01*
X135553563Y-119876648D01*
X135578835Y-119877813D01*
G37*
G36*
X131440101Y-119877813D02*
G01*
X131463918Y-119889771D01*
X131473648Y-119924759D01*
X131475509Y-119994898D01*
X131474615Y-120057758D01*
X131466682Y-120096672D01*
X131443652Y-120111064D01*
X131397464Y-120113147D01*
X131324532Y-120102391D01*
X131277469Y-120062912D01*
X131262660Y-119991000D01*
X131276809Y-119934958D01*
X131328582Y-119891687D01*
X131414829Y-119876648D01*
X131440101Y-119877813D01*
G37*
G36*
X142604302Y-119878014D02*
G01*
X142627185Y-119890574D01*
X142636499Y-119926413D01*
X142638265Y-119997530D01*
X142638265Y-120118411D01*
X142549758Y-120101807D01*
X142489943Y-120089400D01*
X142446321Y-120072072D01*
X142428699Y-120043743D01*
X142425416Y-119994334D01*
X142439424Y-119935716D01*
X142490745Y-119891707D01*
X142577585Y-119876648D01*
X142604302Y-119878014D01*
G37*
G36*
X134660483Y-118203868D02*
G01*
X134668246Y-118268454D01*
X134668087Y-118293692D01*
X134662407Y-118341303D01*
X134640189Y-118359885D01*
X134590201Y-118363054D01*
X134525326Y-118352385D01*
X134474598Y-118320245D01*
X134453070Y-118276732D01*
X134465354Y-118232179D01*
X134516061Y-118196919D01*
X134577279Y-118176984D01*
X134632505Y-118174480D01*
X134660483Y-118203868D01*
G37*
G36*
X131819164Y-118413902D02*
G01*
X131852907Y-118437463D01*
X131878066Y-118494670D01*
X131891436Y-118555229D01*
X131891725Y-118643028D01*
X131872137Y-118717859D01*
X131835219Y-118763740D01*
X131809743Y-118776231D01*
X131766561Y-118788033D01*
X131741480Y-118780182D01*
X131703688Y-118737679D01*
X131675668Y-118670538D01*
X131664708Y-118592736D01*
X131665148Y-118568985D01*
X131680263Y-118478631D01*
X131718483Y-118426866D01*
X131781955Y-118410354D01*
X131819164Y-118413902D01*
G37*
G36*
X129795317Y-119840617D02*
G01*
X129706911Y-119902187D01*
X129646087Y-119948635D01*
X129608286Y-119983495D01*
X129588949Y-120010305D01*
X129583516Y-120032599D01*
X129590160Y-120069359D01*
X129611403Y-120089497D01*
X129616313Y-120087922D01*
X129655004Y-120067006D01*
X129726226Y-120024278D01*
X129824869Y-119962941D01*
X129945825Y-119886193D01*
X130083985Y-119797237D01*
X130234240Y-119699274D01*
X130829189Y-119309050D01*
X143205862Y-119309050D01*
X143205862Y-120785682D01*
X143082508Y-120910588D01*
X142959154Y-121035493D01*
X124228300Y-121035493D01*
X123978488Y-120788785D01*
X123978488Y-120586145D01*
X124356887Y-120586145D01*
X124971784Y-120586145D01*
X124971784Y-120520120D01*
X124965969Y-120484552D01*
X124946463Y-120449894D01*
X125118293Y-120449894D01*
X125121382Y-120514059D01*
X125156933Y-120570655D01*
X125179680Y-120586145D01*
X125198376Y-120598877D01*
X125262132Y-120604256D01*
X125326533Y-120562495D01*
X125358257Y-120517866D01*
X125368369Y-120449147D01*
X125337968Y-120386617D01*
X125269988Y-120341732D01*
X125242871Y-120335346D01*
X125185129Y-120348201D01*
X125141573Y-120390496D01*
X125118293Y-120449894D01*
X124946463Y-120449894D01*
X124931936Y-120424082D01*
X124862563Y-120348658D01*
X124792740Y-120278346D01*
X124694228Y-120161960D01*
X124636109Y-120063304D01*
X124617036Y-119980356D01*
X124617977Y-119960937D01*
X124627099Y-119936081D01*
X125453453Y-119936081D01*
X125455076Y-119940521D01*
X125469924Y-119984556D01*
X125495237Y-120061980D01*
X125527929Y-120163296D01*
X125564912Y-120279005D01*
X125619048Y-120449147D01*
X125662638Y-120586145D01*
X125790952Y-120586145D01*
X125828287Y-120585283D01*
X125899342Y-120575693D01*
X125930288Y-120556583D01*
X125944734Y-120516698D01*
X125974606Y-120430175D01*
X126008775Y-120327733D01*
X126009340Y-120325996D01*
X126201579Y-120325996D01*
X126402604Y-120325996D01*
X126439684Y-120326339D01*
X126523526Y-120330043D01*
X126581793Y-120336950D01*
X126603628Y-120345981D01*
X126598116Y-120369557D01*
X126557828Y-120409664D01*
X126488405Y-120435147D01*
X126401709Y-120440455D01*
X126330052Y-120439113D01*
X126286554Y-120451897D01*
X126256346Y-120483936D01*
X126239494Y-120511865D01*
X126239479Y-120540942D01*
X126276684Y-120569969D01*
X126376921Y-120608931D01*
X126495603Y-120616452D01*
X126612965Y-120592168D01*
X126648898Y-120572251D01*
X126887427Y-120572251D01*
X126895453Y-120577265D01*
X126938352Y-120583649D01*
X127005897Y-120586145D01*
X127124367Y-120586145D01*
X127200172Y-120432421D01*
X127234894Y-120366897D01*
X127281314Y-120300581D01*
X127318201Y-120278696D01*
X127336268Y-120281922D01*
X127351541Y-120301724D01*
X127358667Y-120348517D01*
X127360425Y-120432421D01*
X127360425Y-120586145D01*
X127596924Y-120586145D01*
X127596924Y-120355548D01*
X130344540Y-120355548D01*
X130364678Y-120441504D01*
X130424186Y-120518012D01*
X130520899Y-120577186D01*
X130550928Y-120588071D01*
X130661960Y-120606483D01*
X130775500Y-120598087D01*
X130876379Y-120565250D01*
X130949428Y-120510338D01*
X130960688Y-120493630D01*
X130961220Y-120460325D01*
X130930122Y-120412314D01*
X130927607Y-120409121D01*
X130892147Y-120370329D01*
X130860526Y-120364459D01*
X130810246Y-120386706D01*
X130740260Y-120410002D01*
X130663993Y-120416070D01*
X130624317Y-120409711D01*
X130592952Y-120386573D01*
X130581279Y-120332613D01*
X130579191Y-120303060D01*
X130586151Y-120268773D01*
X130616547Y-120248095D01*
X130681791Y-120229294D01*
X130708377Y-120222346D01*
X130761694Y-120202799D01*
X130784709Y-120176776D01*
X130789661Y-120133398D01*
X130788290Y-120106197D01*
X130770127Y-120068845D01*
X130719242Y-120050581D01*
X130665267Y-120033381D01*
X130620765Y-119996459D01*
X131039060Y-119996459D01*
X131045645Y-120053865D01*
X131089287Y-120151124D01*
X131166457Y-120230016D01*
X131268515Y-120282944D01*
X131386822Y-120302310D01*
X131475509Y-120302346D01*
X131475509Y-120586145D01*
X131712008Y-120586145D01*
X131712008Y-120396180D01*
X131881692Y-120396180D01*
X131891664Y-120470785D01*
X131917838Y-120519761D01*
X131965697Y-120553600D01*
X132040723Y-120582796D01*
X132053606Y-120586145D01*
X132109895Y-120600778D01*
X132253211Y-120603846D01*
X132392173Y-120559891D01*
X132491429Y-120494457D01*
X132526487Y-120449894D01*
X133041012Y-120449894D01*
X133044101Y-120514059D01*
X133079652Y-120570655D01*
X133121094Y-120598877D01*
X133184851Y-120604256D01*
X133249252Y-120562495D01*
X133280976Y-120517866D01*
X133291088Y-120449147D01*
X133260687Y-120386617D01*
X133192707Y-120341732D01*
X133165589Y-120335346D01*
X133107848Y-120348201D01*
X133064292Y-120390496D01*
X133041012Y-120449894D01*
X132526487Y-120449894D01*
X132562586Y-120404009D01*
X132610495Y-120279473D01*
X132610781Y-120278260D01*
X133415485Y-120278260D01*
X133444265Y-120395434D01*
X133478633Y-120449147D01*
X133508300Y-120495514D01*
X133604472Y-120568371D01*
X133686692Y-120598474D01*
X133802317Y-120601998D01*
X133912966Y-120559130D01*
X133957773Y-120520702D01*
X134162589Y-120520702D01*
X134177842Y-120544972D01*
X134229016Y-120571925D01*
X134296767Y-120596771D01*
X134415519Y-120606967D01*
X134491348Y-120586145D01*
X134833795Y-120586145D01*
X135850741Y-120586145D01*
X135850741Y-119711099D01*
X135623729Y-119711099D01*
X135542850Y-119712686D01*
X135400265Y-119727782D01*
X135296654Y-119761028D01*
X135227829Y-119815104D01*
X135189605Y-119892688D01*
X135177794Y-119996459D01*
X135184378Y-120053865D01*
X135228020Y-120151124D01*
X135305190Y-120230016D01*
X135407248Y-120282944D01*
X135525555Y-120302310D01*
X135614242Y-120302346D01*
X135614242Y-120586145D01*
X135071593Y-120586145D01*
X135065031Y-120249134D01*
X135058470Y-119912123D01*
X134946133Y-119904915D01*
X134833795Y-119897706D01*
X134833795Y-120586145D01*
X134491348Y-120586145D01*
X134524230Y-120577116D01*
X134614927Y-120511832D01*
X134679634Y-120415728D01*
X134710376Y-120293418D01*
X134708076Y-120182684D01*
X134671753Y-120064585D01*
X134600934Y-119975734D01*
X134498777Y-119919762D01*
X134368439Y-119900298D01*
X134331002Y-119901831D01*
X134256603Y-119913507D01*
X134206995Y-119932906D01*
X134178270Y-119958184D01*
X134177542Y-119984055D01*
X134204385Y-120029589D01*
X134218588Y-120049724D01*
X134256841Y-120080609D01*
X134306088Y-120078677D01*
X134311665Y-120077379D01*
X134386803Y-120081074D01*
X134445787Y-120120308D01*
X134482697Y-120185042D01*
X134490151Y-120252118D01*
X134491609Y-120265235D01*
X134466602Y-120350844D01*
X134453606Y-120375075D01*
X134426842Y-120408714D01*
X134389482Y-120418518D01*
X134323552Y-120412195D01*
X134295289Y-120408564D01*
X134241534Y-120407241D01*
X134210407Y-120424130D01*
X134184403Y-120466001D01*
X134176133Y-120482196D01*
X134162589Y-120520702D01*
X133957773Y-120520702D01*
X134016429Y-120470396D01*
X134037451Y-120438038D01*
X134064161Y-120353747D01*
X134074768Y-120252118D01*
X134068090Y-120151088D01*
X134042944Y-120068593D01*
X134007248Y-120014856D01*
X133923530Y-119945527D01*
X133822182Y-119908156D01*
X133713819Y-119902617D01*
X133609057Y-119928781D01*
X133518510Y-119986520D01*
X133477485Y-120042197D01*
X133452794Y-120075707D01*
X133425079Y-120154123D01*
X133415485Y-120278260D01*
X132610781Y-120278260D01*
X132617906Y-120248082D01*
X132626157Y-120106441D01*
X132608443Y-120029736D01*
X133040154Y-120029736D01*
X133048677Y-120095265D01*
X133057333Y-120106441D01*
X133088965Y-120147281D01*
X133130800Y-120171385D01*
X133171739Y-120184097D01*
X133191824Y-120179627D01*
X133239400Y-120145879D01*
X133279612Y-120094040D01*
X133296552Y-120042197D01*
X133294687Y-120025757D01*
X133265525Y-119967882D01*
X133214309Y-119920150D01*
X133158318Y-119900298D01*
X133101736Y-119917480D01*
X133059228Y-119965529D01*
X133040154Y-120029736D01*
X132608443Y-120029736D01*
X132595708Y-119974589D01*
X132531635Y-119859644D01*
X132439012Y-119768726D01*
X132322916Y-119708955D01*
X132276538Y-119701539D01*
X134832444Y-119701539D01*
X134840470Y-119761234D01*
X134879540Y-119804866D01*
X134934081Y-119824423D01*
X135002938Y-119819057D01*
X135051751Y-119779016D01*
X135070295Y-119709416D01*
X135065046Y-119672823D01*
X135033895Y-119627609D01*
X136236106Y-119627609D01*
X136238248Y-119656230D01*
X136240169Y-119663192D01*
X136251308Y-119709416D01*
X136251963Y-119712133D01*
X136271497Y-119797347D01*
X136297089Y-119911363D01*
X136327059Y-120046712D01*
X136359724Y-120195922D01*
X136370442Y-120245111D01*
X136402485Y-120391721D01*
X136431268Y-120522755D01*
X136445281Y-120586145D01*
X136455098Y-120630551D01*
X136472284Y-120707448D01*
X136481135Y-120745782D01*
X136489610Y-120764671D01*
X136526206Y-120793401D01*
X136573268Y-120802709D01*
X136613627Y-120791232D01*
X136630112Y-120757607D01*
X136628092Y-120742378D01*
X136617119Y-120684138D01*
X136597931Y-120590995D01*
X136572015Y-120469961D01*
X136540859Y-120328049D01*
X136532449Y-120290521D01*
X136938637Y-120290521D01*
X136940183Y-120327889D01*
X136953337Y-120364037D01*
X136985937Y-120373296D01*
X136989335Y-120373337D01*
X137017291Y-120381765D01*
X137030142Y-120413214D01*
X137033237Y-120479721D01*
X137033237Y-120586145D01*
X137246086Y-120586145D01*
X137719084Y-120586145D01*
X137938009Y-120586145D01*
X137927252Y-120325055D01*
X137924834Y-120264867D01*
X137922372Y-120174163D01*
X137924885Y-120124927D01*
X137934475Y-120117804D01*
X137953246Y-120153438D01*
X137983299Y-120232475D01*
X138026739Y-120355559D01*
X138031763Y-120369855D01*
X138061410Y-120447924D01*
X138085675Y-120491734D01*
X138111843Y-120510939D01*
X138147200Y-120515196D01*
X138159277Y-120514887D01*
X138196721Y-120504483D01*
X138224511Y-120470916D01*
X138253350Y-120402858D01*
X138263590Y-120375298D01*
X138301066Y-120275842D01*
X138336259Y-120184097D01*
X138377637Y-120077672D01*
X138364071Y-120331909D01*
X138350505Y-120586145D01*
X138570481Y-120586145D01*
X138570481Y-119798836D01*
X138695668Y-119798836D01*
X138704157Y-119826461D01*
X138744533Y-119873180D01*
X138762745Y-119891955D01*
X138800875Y-119924034D01*
X138832304Y-119927189D01*
X138875521Y-119906060D01*
X138899054Y-119894475D01*
X138976625Y-119882694D01*
X139046161Y-119908080D01*
X139103141Y-119962831D01*
X139143043Y-120039145D01*
X139161347Y-120129221D01*
X139153531Y-120225256D01*
X139115074Y-120319449D01*
X139104543Y-120335613D01*
X139040473Y-120395924D01*
X138962050Y-120411784D01*
X138866759Y-120383847D01*
X138837964Y-120370373D01*
X138794890Y-120355517D01*
X138768444Y-120364487D01*
X138740593Y-120399523D01*
X138729984Y-120414838D01*
X138704749Y-120465051D01*
X138715083Y-120502650D01*
X138763831Y-120545508D01*
X138776634Y-120554424D01*
X138856078Y-120586145D01*
X138877308Y-120594622D01*
X138993514Y-120602154D01*
X139111480Y-120579415D01*
X139217436Y-120528797D01*
X139297610Y-120452697D01*
X139354897Y-120346246D01*
X139359366Y-120327666D01*
X139489682Y-120327666D01*
X139509858Y-120417627D01*
X139563881Y-120496591D01*
X139648883Y-120553169D01*
X139714700Y-120570134D01*
X139820693Y-120581952D01*
X139953241Y-120586145D01*
X140178674Y-120586145D01*
X140178674Y-120449894D01*
X140632632Y-120449894D01*
X140635721Y-120514059D01*
X140671272Y-120570655D01*
X140694019Y-120586145D01*
X140712715Y-120598877D01*
X140776471Y-120604256D01*
X140804401Y-120586145D01*
X141030071Y-120586145D01*
X141267869Y-120586145D01*
X141256387Y-119996459D01*
X141374070Y-119996459D01*
X141380654Y-120053865D01*
X141424296Y-120151124D01*
X141501466Y-120230016D01*
X141603524Y-120282944D01*
X141721831Y-120302310D01*
X141810518Y-120302346D01*
X141810518Y-120586145D01*
X142047017Y-120586145D01*
X142047017Y-120572251D01*
X142165267Y-120572251D01*
X142173293Y-120577265D01*
X142216191Y-120583649D01*
X142283737Y-120586145D01*
X142402207Y-120586145D01*
X142478012Y-120432421D01*
X142512734Y-120366897D01*
X142559154Y-120300581D01*
X142596041Y-120278696D01*
X142614108Y-120281922D01*
X142629381Y-120301724D01*
X142636507Y-120348517D01*
X142638265Y-120432421D01*
X142638265Y-120586145D01*
X142874764Y-120586145D01*
X142874764Y-119711099D01*
X142632352Y-119711187D01*
X142601188Y-119711349D01*
X142461820Y-119717974D01*
X142360374Y-119736645D01*
X142289569Y-119770570D01*
X142242122Y-119822960D01*
X142210753Y-119897024D01*
X142194014Y-119994677D01*
X142212894Y-120088458D01*
X142273746Y-120182226D01*
X142334940Y-120254951D01*
X142250103Y-120406653D01*
X142244529Y-120416651D01*
X142204385Y-120490611D01*
X142176019Y-120546275D01*
X142165267Y-120572251D01*
X142047017Y-120572251D01*
X142047017Y-119711099D01*
X141820005Y-119711099D01*
X141739126Y-119712686D01*
X141596541Y-119727782D01*
X141492929Y-119761028D01*
X141424105Y-119815104D01*
X141385881Y-119892688D01*
X141374070Y-119996459D01*
X141256387Y-119996459D01*
X141254745Y-119912123D01*
X141142408Y-119904915D01*
X141030071Y-119897706D01*
X141030071Y-120586145D01*
X140804401Y-120586145D01*
X140840872Y-120562495D01*
X140872596Y-120517866D01*
X140882708Y-120449147D01*
X140852307Y-120386617D01*
X140784327Y-120341732D01*
X140757209Y-120335346D01*
X140699468Y-120348201D01*
X140655912Y-120390496D01*
X140632632Y-120449894D01*
X140178674Y-120449894D01*
X140178674Y-120029736D01*
X140631774Y-120029736D01*
X140640297Y-120095265D01*
X140680585Y-120147281D01*
X140722420Y-120171385D01*
X140763359Y-120184097D01*
X140783445Y-120179627D01*
X140831020Y-120145879D01*
X140871232Y-120094040D01*
X140888172Y-120042197D01*
X140886307Y-120025757D01*
X140857146Y-119967882D01*
X140805929Y-119920150D01*
X140749938Y-119900298D01*
X140693356Y-119917480D01*
X140650848Y-119965529D01*
X140631774Y-120029736D01*
X140178674Y-120029736D01*
X140178674Y-119711099D01*
X139941001Y-119711099D01*
X139903983Y-119711344D01*
X139760199Y-119719121D01*
X139657084Y-119738750D01*
X139590127Y-119771485D01*
X139554818Y-119818583D01*
X139554011Y-119820733D01*
X139540458Y-119901451D01*
X139548523Y-119989500D01*
X139575948Y-120059164D01*
X139596706Y-120096503D01*
X139590252Y-120127107D01*
X139552298Y-120169776D01*
X139524553Y-120210919D01*
X139506223Y-120238100D01*
X139489682Y-120327666D01*
X139359366Y-120327666D01*
X139387448Y-120210919D01*
X139384295Y-120073528D01*
X139347121Y-119943937D01*
X139277604Y-119832005D01*
X139177428Y-119747594D01*
X139092886Y-119707740D01*
X139056637Y-119701539D01*
X141028720Y-119701539D01*
X141036746Y-119761234D01*
X141075816Y-119804866D01*
X141130357Y-119824423D01*
X141199213Y-119819057D01*
X141248027Y-119779016D01*
X141266570Y-119709416D01*
X141261322Y-119672823D01*
X141224905Y-119619967D01*
X141163643Y-119597628D01*
X141089196Y-119612196D01*
X141050457Y-119644249D01*
X141028720Y-119701539D01*
X139056637Y-119701539D01*
X138970389Y-119686785D01*
X138845338Y-119710778D01*
X138712796Y-119780064D01*
X138695668Y-119798836D01*
X138570481Y-119798836D01*
X138570481Y-119711099D01*
X138446319Y-119711160D01*
X138322157Y-119711222D01*
X138253770Y-119906272D01*
X138242899Y-119937236D01*
X138209548Y-120031744D01*
X138181437Y-120110720D01*
X138163742Y-120159601D01*
X138162116Y-120163826D01*
X138151138Y-120181334D01*
X138138024Y-120175624D01*
X138119740Y-120141226D01*
X138093255Y-120072671D01*
X138055533Y-119964489D01*
X137968965Y-119711099D01*
X137719084Y-119711099D01*
X137719084Y-120586145D01*
X137246086Y-120586145D01*
X137246086Y-120373296D01*
X137600835Y-120373296D01*
X137600835Y-120292433D01*
X137597931Y-120264568D01*
X137575009Y-120192896D01*
X137527435Y-120093662D01*
X137453023Y-119961975D01*
X137305211Y-119712380D01*
X137169224Y-119711739D01*
X137033237Y-119711099D01*
X137033237Y-119959423D01*
X137033213Y-119990531D01*
X137032218Y-120091029D01*
X137028586Y-120154637D01*
X137020723Y-120189717D01*
X137007038Y-120204633D01*
X136985937Y-120207747D01*
X136964584Y-120210452D01*
X136943928Y-120233471D01*
X136938637Y-120290521D01*
X136532449Y-120290521D01*
X136505950Y-120172272D01*
X136382864Y-119628324D01*
X136303883Y-119620755D01*
X136261817Y-119618482D01*
X136236106Y-119627609D01*
X135033895Y-119627609D01*
X135028630Y-119619967D01*
X134967367Y-119597628D01*
X134892920Y-119612196D01*
X134854181Y-119644249D01*
X134832444Y-119701539D01*
X132276538Y-119701539D01*
X132188422Y-119687449D01*
X132123515Y-119695236D01*
X132047204Y-119716112D01*
X131975405Y-119744529D01*
X131922084Y-119774929D01*
X131901207Y-119801754D01*
X131902105Y-119805713D01*
X131924074Y-119837774D01*
X131966244Y-119882438D01*
X132011792Y-119921210D01*
X132043064Y-119929140D01*
X132077189Y-119910513D01*
X132141103Y-119880433D01*
X132224796Y-119880888D01*
X132302360Y-119920030D01*
X132362135Y-119994424D01*
X132389202Y-120067861D01*
X132396932Y-120172439D01*
X132373282Y-120269888D01*
X132321652Y-120348487D01*
X132245444Y-120396513D01*
X132209055Y-120407178D01*
X132140141Y-120413167D01*
X132102090Y-120387029D01*
X132090406Y-120326739D01*
X132092836Y-120287176D01*
X132111880Y-120260596D01*
X132162784Y-120255047D01*
X132175744Y-120254972D01*
X132215836Y-120249220D01*
X132229797Y-120224316D01*
X132227821Y-120166359D01*
X132220481Y-120077672D01*
X131889382Y-120077672D01*
X131882614Y-120280169D01*
X131882440Y-120285451D01*
X131881692Y-120396180D01*
X131712008Y-120396180D01*
X131712008Y-119711099D01*
X131484995Y-119711099D01*
X131404117Y-119712686D01*
X131261531Y-119727782D01*
X131157920Y-119761028D01*
X131089096Y-119815104D01*
X131050871Y-119892688D01*
X131039060Y-119996459D01*
X130620765Y-119996459D01*
X130614229Y-119991036D01*
X130604422Y-119933531D01*
X130604729Y-119932011D01*
X130634312Y-119878778D01*
X130689847Y-119862536D01*
X130765961Y-119884903D01*
X130772661Y-119888175D01*
X130839207Y-119907680D01*
X130888938Y-119888327D01*
X130933304Y-119826092D01*
X130933343Y-119826018D01*
X130940687Y-119795662D01*
X130919543Y-119768826D01*
X130862005Y-119735460D01*
X130859870Y-119734377D01*
X130742778Y-119694804D01*
X130628444Y-119690239D01*
X130525130Y-119717111D01*
X130441103Y-119771850D01*
X130384625Y-119850885D01*
X130363963Y-119950646D01*
X130364601Y-119957874D01*
X130386213Y-120007904D01*
X130429000Y-120061443D01*
X130494038Y-120124972D01*
X130417175Y-120199469D01*
X130365937Y-120268026D01*
X130344540Y-120355548D01*
X127596924Y-120355548D01*
X127596924Y-119711099D01*
X127354512Y-119711187D01*
X127323348Y-119711349D01*
X127183980Y-119717974D01*
X127082534Y-119736645D01*
X127011729Y-119770570D01*
X126964282Y-119822960D01*
X126932913Y-119897024D01*
X126916174Y-119994677D01*
X126935054Y-120088458D01*
X126995907Y-120182226D01*
X127057100Y-120254951D01*
X127040024Y-120285486D01*
X126972264Y-120406653D01*
X126966689Y-120416651D01*
X126926545Y-120490611D01*
X126898179Y-120546275D01*
X126887427Y-120572251D01*
X126648898Y-120572251D01*
X126711836Y-120537365D01*
X126751730Y-120493180D01*
X126796610Y-120397647D01*
X126815945Y-120285486D01*
X126807795Y-120172139D01*
X126770218Y-120073045D01*
X126721012Y-120007706D01*
X126631710Y-119939111D01*
X126533966Y-119908575D01*
X126435865Y-119913688D01*
X126395148Y-119930968D01*
X126345492Y-119952042D01*
X126270930Y-120021228D01*
X126220265Y-120118837D01*
X126201579Y-120242462D01*
X126201579Y-120325996D01*
X126009340Y-120325996D01*
X126044000Y-120219492D01*
X126077039Y-120115573D01*
X126104651Y-120026099D01*
X126123595Y-119961190D01*
X126130630Y-119930968D01*
X126130163Y-119926986D01*
X126101102Y-119906963D01*
X126026796Y-119900298D01*
X125922962Y-119900298D01*
X125871669Y-120095410D01*
X125846839Y-120189909D01*
X125820466Y-120287411D01*
X125801991Y-120345811D01*
X125788754Y-120368938D01*
X125778096Y-120360621D01*
X125767356Y-120324689D01*
X125753873Y-120264971D01*
X125740616Y-120208131D01*
X125714025Y-120102619D01*
X125689206Y-120012790D01*
X125655799Y-119900298D01*
X125547761Y-119900298D01*
X125483954Y-119902972D01*
X125453965Y-119913756D01*
X125453453Y-119936081D01*
X124627099Y-119936081D01*
X124641678Y-119896358D01*
X124690902Y-119865571D01*
X124757097Y-119871154D01*
X124831708Y-119915682D01*
X124853572Y-119930316D01*
X124882817Y-119926500D01*
X124923866Y-119889131D01*
X124950673Y-119858060D01*
X124963947Y-119824561D01*
X124947416Y-119793007D01*
X124869285Y-119730018D01*
X124767042Y-119694868D01*
X124657215Y-119691114D01*
X124553759Y-119719152D01*
X124470628Y-119779383D01*
X124439752Y-119818156D01*
X124411622Y-119881522D01*
X124404275Y-119965708D01*
X124410700Y-120039828D01*
X124436937Y-120123006D01*
X124488334Y-120214612D01*
X124570117Y-120325996D01*
X124635457Y-120408771D01*
X124356887Y-120392745D01*
X124356887Y-120586145D01*
X123978488Y-120586145D01*
X123978488Y-119309050D01*
X129654466Y-119309050D01*
X129654466Y-119190801D01*
X123978488Y-119190801D01*
X123978488Y-118029785D01*
X128077658Y-118029785D01*
X128080787Y-118061518D01*
X128083547Y-118075154D01*
X128094485Y-118134589D01*
X128110729Y-118226582D01*
X128130578Y-118341442D01*
X128152333Y-118469479D01*
X128175808Y-118610879D01*
X128197056Y-118738417D01*
X128214248Y-118830258D01*
X128230220Y-118892165D01*
X128247809Y-118929897D01*
X128269852Y-118949215D01*
X128299186Y-118955882D01*
X128338648Y-118955657D01*
X128391075Y-118954302D01*
X128462809Y-118952326D01*
X128523936Y-118942784D01*
X128544210Y-118924739D01*
X128548041Y-118898456D01*
X128560030Y-118833597D01*
X128578139Y-118742228D01*
X128600302Y-118635028D01*
X128655105Y-118374879D01*
X128681769Y-118504953D01*
X128694981Y-118569796D01*
X128717611Y-118681878D01*
X128738992Y-118788752D01*
X128769552Y-118942477D01*
X128915656Y-118949499D01*
X128994954Y-118951959D01*
X129041130Y-118947317D01*
X129063677Y-118931911D01*
X129074495Y-118902199D01*
X129077470Y-118888997D01*
X129091196Y-118822127D01*
X129109637Y-118726642D01*
X129120980Y-118666024D01*
X129284430Y-118666024D01*
X129304958Y-118755894D01*
X129353953Y-118844752D01*
X129423561Y-118915768D01*
X129433595Y-118922589D01*
X129524524Y-118958779D01*
X129637192Y-118973073D01*
X129753535Y-118964748D01*
X129787166Y-118954302D01*
X130624112Y-118954302D01*
X130860611Y-118954302D01*
X130860611Y-118693410D01*
X130861422Y-118601867D01*
X130866881Y-118502954D01*
X130879904Y-118441913D01*
X130903276Y-118413181D01*
X130939778Y-118411193D01*
X130992194Y-118430388D01*
X131004264Y-118436141D01*
X131025878Y-118451460D01*
X131039284Y-118476711D01*
X131046436Y-118521235D01*
X131049293Y-118594375D01*
X131049810Y-118705471D01*
X131049810Y-118954302D01*
X131286309Y-118954302D01*
X131286309Y-118589721D01*
X131428209Y-118589721D01*
X131429701Y-118634784D01*
X131456820Y-118764757D01*
X131519080Y-118864485D01*
X131617880Y-118936527D01*
X131669779Y-118954302D01*
X131716004Y-118970134D01*
X131838363Y-118969411D01*
X131958137Y-118921775D01*
X131960231Y-118920028D01*
X132214720Y-118920028D01*
X132235690Y-118956894D01*
X132287885Y-118972585D01*
X132366646Y-118975800D01*
X132448941Y-118966283D01*
X132513501Y-118944948D01*
X132523289Y-118939269D01*
X132545683Y-118920028D01*
X132782317Y-118920028D01*
X132803288Y-118956894D01*
X132855483Y-118972585D01*
X132934244Y-118975800D01*
X133016539Y-118966283D01*
X133052794Y-118954302D01*
X133391151Y-118954302D01*
X133497576Y-118954302D01*
X133514319Y-118954219D01*
X133572386Y-118949933D01*
X133598158Y-118934812D01*
X133604000Y-118902879D01*
X133604000Y-118851457D01*
X133660800Y-118904818D01*
X133693403Y-118928666D01*
X133778286Y-118960877D01*
X133871228Y-118969688D01*
X133950138Y-118951531D01*
X133960077Y-118946095D01*
X134000787Y-118911293D01*
X134030396Y-118857389D01*
X134050845Y-118777364D01*
X134064076Y-118664196D01*
X134066028Y-118626572D01*
X134177246Y-118626572D01*
X134180821Y-118714692D01*
X134215184Y-118801176D01*
X134278329Y-118875983D01*
X134368249Y-118929076D01*
X134396629Y-118936109D01*
X134471266Y-118945483D01*
X134570810Y-118951914D01*
X134681611Y-118954302D01*
X134928395Y-118954302D01*
X134928395Y-118340919D01*
X135352848Y-118340919D01*
X135542792Y-118504522D01*
X135605982Y-118558348D01*
X135721062Y-118653895D01*
X135838135Y-118748467D01*
X135949602Y-118836124D01*
X136047864Y-118910925D01*
X136107855Y-118954302D01*
X136125321Y-118966931D01*
X136174373Y-118998201D01*
X136218322Y-119017386D01*
X136266265Y-119020069D01*
X136315777Y-118993445D01*
X136380301Y-118933276D01*
X136431830Y-118873518D01*
X136451861Y-118820711D01*
X136432233Y-118769649D01*
X136372494Y-118707294D01*
X136343194Y-118682886D01*
X136314892Y-118675946D01*
X136283695Y-118700411D01*
X136266409Y-118714608D01*
X136242614Y-118719327D01*
X136207488Y-118706811D01*
X136152040Y-118673556D01*
X136067277Y-118616056D01*
X136030106Y-118589532D01*
X135922439Y-118506636D01*
X135808412Y-118412139D01*
X135707224Y-118321738D01*
X135537923Y-118162487D01*
X135973254Y-118162487D01*
X135973339Y-118169314D01*
X135987314Y-118207425D01*
X136015122Y-118266163D01*
X136030740Y-118296147D01*
X136057130Y-118343324D01*
X136069984Y-118361017D01*
X136076312Y-118358145D01*
X136116163Y-118339515D01*
X136184049Y-118307564D01*
X136270133Y-118266919D01*
X136276985Y-118263678D01*
X136340379Y-118233067D01*
X136682748Y-118233067D01*
X136923030Y-118664077D01*
X136944957Y-118703231D01*
X137012079Y-118820711D01*
X137016225Y-118827968D01*
X137079793Y-118935512D01*
X137131928Y-119019776D01*
X137168896Y-119074678D01*
X137186961Y-119094132D01*
X137196080Y-119092989D01*
X137243823Y-119076409D01*
X137299278Y-119047817D01*
X137345197Y-119016982D01*
X137364335Y-118993671D01*
X137364277Y-118992701D01*
X137351983Y-118959533D01*
X137322409Y-118898716D01*
X137281561Y-118822657D01*
X137277550Y-118815472D01*
X137255647Y-118775366D01*
X137817101Y-118775366D01*
X137818787Y-118776618D01*
X137848941Y-118793869D01*
X137901196Y-118821219D01*
X137911072Y-118826193D01*
X137961582Y-118850012D01*
X137987986Y-118859702D01*
X137990022Y-118858786D01*
X138012888Y-118834271D01*
X138052475Y-118784167D01*
X138101184Y-118718985D01*
X138151418Y-118649233D01*
X138195577Y-118585422D01*
X138226065Y-118538060D01*
X138235282Y-118517657D01*
X138231448Y-118514495D01*
X138185924Y-118487149D01*
X138129303Y-118463194D01*
X138079131Y-118449036D01*
X138052957Y-118451083D01*
X138050660Y-118454341D01*
X138024736Y-118488932D01*
X137979637Y-118547813D01*
X137966902Y-118564267D01*
X137923526Y-118620309D01*
X137908381Y-118639946D01*
X137859113Y-118706470D01*
X137826549Y-118754724D01*
X137817101Y-118775366D01*
X137255647Y-118775366D01*
X137237715Y-118742532D01*
X137209499Y-118688061D01*
X137198786Y-118663380D01*
X137199585Y-118661668D01*
X137227073Y-118649612D01*
X137281561Y-118636588D01*
X137292392Y-118634379D01*
X137348588Y-118610115D01*
X137363204Y-118567820D01*
X137338804Y-118501438D01*
X137335044Y-118494731D01*
X137311532Y-118469735D01*
X137272247Y-118462369D01*
X137202009Y-118469035D01*
X137149265Y-118475525D01*
X137104390Y-118473074D01*
X137076997Y-118450185D01*
X137050053Y-118399008D01*
X137009362Y-118313677D01*
X137180809Y-118320628D01*
X137352255Y-118327579D01*
X137404598Y-118457654D01*
X137412248Y-118476632D01*
X137440439Y-118540731D01*
X137465643Y-118573138D01*
X137499918Y-118583877D01*
X137555320Y-118582974D01*
X137578118Y-118581522D01*
X137637235Y-118574032D01*
X137667654Y-118564267D01*
X137665845Y-118540857D01*
X137651647Y-118481915D01*
X137627890Y-118397476D01*
X137597690Y-118297369D01*
X137564162Y-118191426D01*
X137552102Y-118154990D01*
X137947880Y-118154990D01*
X137951064Y-118232979D01*
X137968066Y-118327579D01*
X138139199Y-118334528D01*
X138310332Y-118341476D01*
X138310332Y-119044274D01*
X138384811Y-119070238D01*
X138391494Y-119072560D01*
X138440360Y-119089006D01*
X138461673Y-119095193D01*
X138471267Y-119089413D01*
X138509400Y-119057863D01*
X138559713Y-119010675D01*
X138610340Y-118959634D01*
X138649418Y-118916527D01*
X138665080Y-118893140D01*
X138658198Y-118868842D01*
X138632165Y-118823728D01*
X138623239Y-118812076D01*
X138594813Y-118792258D01*
X138561215Y-118810278D01*
X138558528Y-118812456D01*
X138542550Y-118820408D01*
X138532246Y-118809246D01*
X138526397Y-118771924D01*
X138523782Y-118701398D01*
X138523181Y-118590624D01*
X138523181Y-118535566D01*
X138603438Y-118535566D01*
X138616898Y-118571274D01*
X138651432Y-118631461D01*
X138701185Y-118705625D01*
X138715039Y-118724939D01*
X138766582Y-118794938D01*
X138806342Y-118846105D01*
X138826649Y-118868481D01*
X138836541Y-118870021D01*
X138878387Y-118858665D01*
X138931384Y-118834022D01*
X138976870Y-118805540D01*
X138996179Y-118782665D01*
X138995602Y-118779743D01*
X138977213Y-118745817D01*
X138938177Y-118687498D01*
X138885578Y-118615494D01*
X138873694Y-118599805D01*
X138822352Y-118532022D01*
X138784665Y-118482269D01*
X138768087Y-118460383D01*
X138763467Y-118458571D01*
X138729335Y-118465929D01*
X138679020Y-118485917D01*
X138631098Y-118510472D01*
X138604146Y-118531532D01*
X138603438Y-118535566D01*
X138523181Y-118535566D01*
X138523181Y-118339404D01*
X138854280Y-118339404D01*
X138854280Y-118126555D01*
X138523181Y-118126555D01*
X138523181Y-117918469D01*
X138415089Y-117909872D01*
X138382423Y-117907774D01*
X138324401Y-117907080D01*
X138296839Y-117911432D01*
X138294189Y-117917643D01*
X138289809Y-117951568D01*
X138288818Y-117959241D01*
X138286682Y-118024072D01*
X138286682Y-118126555D01*
X138180167Y-118126555D01*
X138133833Y-118126084D01*
X138092383Y-118119355D01*
X138078367Y-118097252D01*
X138079655Y-118050610D01*
X138079693Y-118050121D01*
X138075380Y-117990621D01*
X138048295Y-117966876D01*
X138022048Y-117972468D01*
X137988025Y-118012003D01*
X137961751Y-118077088D01*
X137947880Y-118154990D01*
X137552102Y-118154990D01*
X137535614Y-118105174D01*
X137779611Y-118105174D01*
X137795372Y-118122549D01*
X137835288Y-118127341D01*
X137878189Y-118095075D01*
X137915121Y-118030675D01*
X137929003Y-117994625D01*
X137940905Y-117951568D01*
X137932160Y-117929938D01*
X137900971Y-117915071D01*
X137896515Y-117913427D01*
X137862817Y-117909019D01*
X137837024Y-117931373D01*
X137807778Y-117989569D01*
X137797538Y-118014637D01*
X137780251Y-118072177D01*
X137779611Y-118105174D01*
X137535614Y-118105174D01*
X137530419Y-118089478D01*
X137499577Y-118001357D01*
X137474752Y-117936892D01*
X137459058Y-117905916D01*
X137447597Y-117900578D01*
X137398629Y-117896970D01*
X137329365Y-117903041D01*
X137287166Y-117909848D01*
X137241689Y-117922769D01*
X137226339Y-117943870D01*
X137230256Y-117981781D01*
X137241568Y-118029531D01*
X137258625Y-118084749D01*
X137260596Y-118090309D01*
X137260842Y-118106165D01*
X137244289Y-118115363D01*
X137203340Y-118118745D01*
X137130399Y-118117153D01*
X137017869Y-118111428D01*
X136761263Y-118097137D01*
X136734493Y-118143483D01*
X136722005Y-118165102D01*
X136682748Y-118233067D01*
X136340379Y-118233067D01*
X136366132Y-118220632D01*
X136419965Y-118190543D01*
X136445684Y-118166972D01*
X136450487Y-118143483D01*
X136441575Y-118113640D01*
X136423441Y-118065981D01*
X136398755Y-118011825D01*
X136371704Y-117986092D01*
X136332168Y-117986687D01*
X136270026Y-118011513D01*
X136175161Y-118058476D01*
X136130218Y-118081041D01*
X136051958Y-118120775D01*
X135996352Y-118149616D01*
X135973254Y-118162487D01*
X135537923Y-118162487D01*
X135525018Y-118150348D01*
X135438933Y-118245633D01*
X135352848Y-118340919D01*
X134928395Y-118340919D01*
X134928395Y-118008305D01*
X134683600Y-118008305D01*
X134541531Y-118011410D01*
X134426884Y-118022944D01*
X134345414Y-118044896D01*
X134290033Y-118079239D01*
X134253654Y-118127945D01*
X134225168Y-118204781D01*
X134225730Y-118221155D01*
X134228279Y-118295448D01*
X134277154Y-118381358D01*
X134335409Y-118450591D01*
X134278713Y-118480934D01*
X134270481Y-118485575D01*
X134206464Y-118546853D01*
X134177246Y-118626572D01*
X134066028Y-118626572D01*
X134072031Y-118510866D01*
X134081862Y-118221155D01*
X133840499Y-118221155D01*
X133840499Y-118419223D01*
X133840055Y-118496365D01*
X133836021Y-118610882D01*
X133826240Y-118688350D01*
X133808848Y-118735433D01*
X133781981Y-118758796D01*
X133743776Y-118765102D01*
X133737918Y-118765028D01*
X133691726Y-118755628D01*
X133660039Y-118725829D01*
X133640421Y-118668965D01*
X133630437Y-118578372D01*
X133627650Y-118447383D01*
X133627650Y-118221155D01*
X133391151Y-118221155D01*
X133391151Y-118954302D01*
X133052794Y-118954302D01*
X133081099Y-118944948D01*
X133090887Y-118939269D01*
X133143348Y-118894195D01*
X133177105Y-118829480D01*
X133195309Y-118736209D01*
X133201114Y-118605466D01*
X133201594Y-118547592D01*
X133204437Y-118473488D01*
X133211786Y-118432163D01*
X133225953Y-118414244D01*
X133249252Y-118410354D01*
X133276553Y-118404998D01*
X133292585Y-118377645D01*
X133296552Y-118315754D01*
X133296530Y-118307516D01*
X133292451Y-118250673D01*
X133275520Y-118226318D01*
X133237427Y-118221155D01*
X133232278Y-118221121D01*
X133196751Y-118214593D01*
X133181529Y-118187504D01*
X133178302Y-118126555D01*
X133178302Y-118031955D01*
X132965453Y-118031955D01*
X132965453Y-118126555D01*
X132965268Y-118154469D01*
X132959228Y-118200608D01*
X132935676Y-118218291D01*
X132882678Y-118221155D01*
X132858253Y-118221366D01*
X132817882Y-118228268D01*
X132802409Y-118255185D01*
X132799903Y-118315754D01*
X132800089Y-118343668D01*
X132806128Y-118389807D01*
X132829680Y-118407490D01*
X132882678Y-118410354D01*
X132965453Y-118410354D01*
X132965453Y-118571173D01*
X132965450Y-118574644D01*
X132960287Y-118679320D01*
X132942810Y-118745006D01*
X132909334Y-118779038D01*
X132856177Y-118788752D01*
X132846373Y-118789176D01*
X132808835Y-118807968D01*
X132787430Y-118862656D01*
X132782317Y-118920028D01*
X132545683Y-118920028D01*
X132575750Y-118894195D01*
X132609507Y-118829480D01*
X132627712Y-118736209D01*
X132633516Y-118605466D01*
X132633996Y-118547592D01*
X132636839Y-118473488D01*
X132644188Y-118432163D01*
X132658355Y-118414244D01*
X132681654Y-118410354D01*
X132708955Y-118404998D01*
X132724987Y-118377645D01*
X132728954Y-118315754D01*
X132728933Y-118307516D01*
X132724853Y-118250673D01*
X132707922Y-118226318D01*
X132669829Y-118221155D01*
X132664680Y-118221121D01*
X132629153Y-118214593D01*
X132613931Y-118187504D01*
X132610704Y-118126555D01*
X132610704Y-118031955D01*
X132397855Y-118031955D01*
X132397855Y-118126555D01*
X132397670Y-118154469D01*
X132391631Y-118200608D01*
X132368078Y-118218291D01*
X132315080Y-118221155D01*
X132290656Y-118221366D01*
X132250284Y-118228268D01*
X132234812Y-118255185D01*
X132232306Y-118315754D01*
X132232491Y-118343668D01*
X132238530Y-118389807D01*
X132262083Y-118407490D01*
X132315080Y-118410354D01*
X132397855Y-118410354D01*
X132397855Y-118571173D01*
X132397852Y-118574644D01*
X132394558Y-118641432D01*
X132392689Y-118679320D01*
X132375212Y-118745006D01*
X132341737Y-118779038D01*
X132288580Y-118788752D01*
X132278776Y-118789176D01*
X132241237Y-118807968D01*
X132219832Y-118862656D01*
X132214720Y-118920028D01*
X131960231Y-118920028D01*
X132053135Y-118842508D01*
X132112504Y-118746589D01*
X132138622Y-118641432D01*
X132134596Y-118534007D01*
X132103527Y-118431290D01*
X132048522Y-118340252D01*
X131972685Y-118267866D01*
X131879119Y-118221107D01*
X131770929Y-118206946D01*
X131651219Y-118232358D01*
X131580567Y-118266711D01*
X131494733Y-118344384D01*
X131444542Y-118451100D01*
X131428209Y-118589721D01*
X131286309Y-118589721D01*
X131286309Y-118221155D01*
X131191710Y-118221155D01*
X131164513Y-118221798D01*
X131112731Y-118231963D01*
X131097110Y-118256629D01*
X131097112Y-118258023D01*
X131095957Y-118281910D01*
X131085102Y-118288476D01*
X131053646Y-118276512D01*
X130990686Y-118244804D01*
X130967905Y-118233541D01*
X130886411Y-118203623D01*
X130818443Y-118203181D01*
X130745791Y-118231206D01*
X130721481Y-118245364D01*
X130680751Y-118282627D01*
X130652778Y-118336179D01*
X130635433Y-118413724D01*
X130626588Y-118522968D01*
X130624131Y-118670503D01*
X130624112Y-118671616D01*
X130624112Y-118954302D01*
X129787166Y-118954302D01*
X129855490Y-118933080D01*
X129929109Y-118896202D01*
X129979440Y-118864954D01*
X129996606Y-118837478D01*
X129985608Y-118804603D01*
X129951448Y-118757160D01*
X129887362Y-118673140D01*
X129796057Y-118720731D01*
X129789210Y-118724219D01*
X129702160Y-118755329D01*
X129624602Y-118761369D01*
X129567212Y-118743143D01*
X129540666Y-118701457D01*
X129540309Y-118698647D01*
X129544265Y-118670503D01*
X130127464Y-118670503D01*
X130505862Y-118670503D01*
X130505862Y-118504953D01*
X130127464Y-118504953D01*
X130127464Y-118670503D01*
X129544265Y-118670503D01*
X129544328Y-118670058D01*
X129568661Y-118642917D01*
X129621215Y-118610989D01*
X129709900Y-118568038D01*
X129730210Y-118558402D01*
X129815911Y-118512190D01*
X129884482Y-118466743D01*
X129922610Y-118430659D01*
X129934669Y-118410718D01*
X129971058Y-118308408D01*
X129967139Y-118212526D01*
X129928775Y-118127747D01*
X129861827Y-118058748D01*
X129772157Y-118010204D01*
X129665627Y-117986792D01*
X129548098Y-117993187D01*
X129425434Y-118034065D01*
X129404296Y-118045423D01*
X129369742Y-118063990D01*
X129332270Y-118099777D01*
X129334206Y-118140047D01*
X129372149Y-118195071D01*
X129397038Y-118222199D01*
X129432220Y-118238709D01*
X129478900Y-118224634D01*
X129547744Y-118203585D01*
X129622869Y-118197844D01*
X129684743Y-118208478D01*
X129717567Y-118234813D01*
X129720139Y-118267667D01*
X129694118Y-118303442D01*
X129632344Y-118341550D01*
X129529651Y-118386152D01*
X129511120Y-118393691D01*
X129398535Y-118455062D01*
X129326012Y-118530025D01*
X129287627Y-118624412D01*
X129284430Y-118666024D01*
X129120980Y-118666024D01*
X129131103Y-118611926D01*
X129153903Y-118487367D01*
X129176347Y-118362349D01*
X129196746Y-118246260D01*
X129213409Y-118148485D01*
X129224646Y-118078411D01*
X129228768Y-118045423D01*
X129221027Y-118025096D01*
X129185886Y-118011988D01*
X129113474Y-118008305D01*
X129097365Y-118008204D01*
X129054751Y-118008428D01*
X129024262Y-118014719D01*
X129002747Y-118033870D01*
X128987059Y-118072671D01*
X128974047Y-118137912D01*
X128960562Y-118236385D01*
X128943453Y-118374879D01*
X128938738Y-118411919D01*
X128921269Y-118530212D01*
X128905661Y-118602190D01*
X128891583Y-118628597D01*
X128878707Y-118610177D01*
X128866700Y-118547673D01*
X128863172Y-118524786D01*
X128847913Y-118441775D01*
X128826384Y-118336794D01*
X128802059Y-118227067D01*
X128751532Y-118008305D01*
X128546883Y-118008305D01*
X128485777Y-118268898D01*
X128464888Y-118360731D01*
X128444060Y-118459118D01*
X128429897Y-118534319D01*
X128424671Y-118574951D01*
X128421426Y-118601510D01*
X128404322Y-118632987D01*
X128393826Y-118624473D01*
X128380468Y-118580431D01*
X128369706Y-118510221D01*
X128358988Y-118418700D01*
X128343934Y-118303419D01*
X128328055Y-118191592D01*
X128300671Y-118008305D01*
X128184846Y-118008305D01*
X128140312Y-118008765D01*
X128093886Y-118014048D01*
X128077658Y-118029785D01*
X123978488Y-118029785D01*
X123978488Y-117724507D01*
X143205862Y-117724507D01*
X143205862Y-119190801D01*
X136980025Y-119191049D01*
X130754187Y-119191298D01*
X130618651Y-119291561D01*
X130602362Y-119303397D01*
X130530342Y-119353659D01*
X130429338Y-119422247D01*
X130307440Y-119503741D01*
X130172736Y-119592720D01*
X130033316Y-119683763D01*
X129991415Y-119711099D01*
X129915864Y-119760388D01*
X129795317Y-119840617D01*
G37*
G36*
X134624823Y-118553000D02*
G01*
X134654154Y-118562197D01*
X134666025Y-118593176D01*
X134668246Y-118658678D01*
X134668246Y-118765102D01*
X134562654Y-118765102D01*
X134513068Y-118763122D01*
X134460786Y-118749065D01*
X134431269Y-118716909D01*
X134413264Y-118649768D01*
X134437460Y-118597865D01*
X134501663Y-118564619D01*
X134603209Y-118552576D01*
X134624823Y-118553000D01*
G37*
%TD*%
M02*
