%TF.GenerationSoftware,KiCad,Pcbnew,(6.0.5-0)*%
%TF.CreationDate,2022-06-18T01:32:45+09:00*%
%TF.ProjectId,bg-key,62672d6b-6579-42e6-9b69-6361645f7063,rev?*%
%TF.SameCoordinates,Original*%
%TF.FileFunction,Copper,L1,Top*%
%TF.FilePolarity,Positive*%
%FSLAX46Y46*%
G04 Gerber Fmt 4.6, Leading zero omitted, Abs format (unit mm)*
G04 Created by KiCad (PCBNEW (6.0.5-0)) date 2022-06-18 01:32:45*
%MOMM*%
%LPD*%
G01*
G04 APERTURE LIST*
%TA.AperFunction,EtchedComponent*%
%ADD10C,0.120000*%
%TD*%
%TA.AperFunction,ComponentPad*%
%ADD11C,1.800000*%
%TD*%
%TA.AperFunction,SMDPad,CuDef*%
%ADD12R,1.200000X1.200000*%
%TD*%
%TA.AperFunction,Conductor*%
%ADD13C,0.250000*%
%TD*%
G04 APERTURE END LIST*
D10*
%TO.C,SW1*%
X136300000Y-115623000D02*
X137800000Y-115623000D01*
X137800000Y-115623000D02*
X137800000Y-116323000D01*
X137800000Y-116323000D02*
X136300000Y-116323000D01*
X136300000Y-116323000D02*
X136300000Y-115623000D01*
G36*
X136300000Y-115623000D02*
G01*
X137800000Y-115623000D01*
X137800000Y-116323000D01*
X136300000Y-116323000D01*
X136300000Y-115623000D01*
G37*
X129400000Y-116323000D02*
X130200000Y-116323000D01*
X130200000Y-116323000D02*
X130200000Y-117123000D01*
X130200000Y-117123000D02*
X129400000Y-117123000D01*
X129400000Y-117123000D02*
X129400000Y-116323000D01*
G36*
X129400000Y-116323000D02*
G01*
X130200000Y-116323000D01*
X130200000Y-117123000D01*
X129400000Y-117123000D01*
X129400000Y-116323000D01*
G37*
X137000000Y-116323000D02*
X137800000Y-116323000D01*
X137800000Y-116323000D02*
X137800000Y-117123000D01*
X137800000Y-117123000D02*
X137000000Y-117123000D01*
X137000000Y-117123000D02*
X137000000Y-116323000D01*
G36*
X137000000Y-116323000D02*
G01*
X137800000Y-116323000D01*
X137800000Y-117123000D01*
X137000000Y-117123000D01*
X137000000Y-116323000D01*
G37*
X129400000Y-115623000D02*
X130900000Y-115623000D01*
X130900000Y-115623000D02*
X130900000Y-116323000D01*
X130900000Y-116323000D02*
X129400000Y-116323000D01*
X129400000Y-116323000D02*
X129400000Y-115623000D01*
G36*
X129400000Y-115623000D02*
G01*
X130900000Y-115623000D01*
X130900000Y-116323000D01*
X129400000Y-116323000D01*
X129400000Y-115623000D01*
G37*
%TD*%
D11*
%TO.P,U1,1,3V3*%
%TO.N,Net-(U1-Pad1)*%
X128497000Y-125687000D03*
%TO.P,U1,2,SDA*%
%TO.N,unconnected-(U1-Pad2)*%
X131037000Y-125433000D03*
%TO.P,U1,3,SCL*%
%TO.N,unconnected-(U1-Pad3)*%
X133577000Y-125687000D03*
%TO.P,U1,4,INT*%
%TO.N,Net-(SW1-Pad2)*%
X136117000Y-125433000D03*
%TO.P,U1,5,GND*%
%TO.N,GND*%
X138657000Y-125687000D03*
%TD*%
D12*
%TO.P,SW1,1,1*%
%TO.N,GND*%
X135700000Y-118223000D03*
%TO.P,SW1,2,2*%
%TO.N,Net-(SW1-Pad2)*%
X131500000Y-118223000D03*
%TD*%
D13*
%TO.N,GND*%
X135700000Y-118223000D02*
X136476000Y-118999000D01*
X136476000Y-118999000D02*
X137922000Y-118999000D01*
X137922000Y-118999000D02*
X138684000Y-119761000D01*
X138684000Y-119761000D02*
X138657000Y-119788000D01*
X138657000Y-119788000D02*
X138657000Y-125687000D01*
%TO.N,Net-(SW1-Pad2)*%
X131500000Y-118223000D02*
X131500000Y-118800000D01*
X132461000Y-121539000D02*
X135763000Y-121539000D01*
X135763000Y-121539000D02*
X136117000Y-121893000D01*
X131500000Y-118800000D02*
X132080000Y-119380000D01*
X132080000Y-121158000D02*
X132461000Y-121539000D01*
X132080000Y-119380000D02*
X132080000Y-121158000D01*
X136117000Y-121893000D02*
X136117000Y-125433000D01*
%TD*%
M02*
